<svg id="svg-map" aria-hidden="true" xmlns="http://www.w3.org/2000/svg"><defs><symbol id="icon-angle-left" viewBox="0 0 12 32"><title>angle left icon</title><path d="M12 7.398q0 .253-.181.47l-8.133 8.133 8.133 8.096q.181.217.181.47 0 .289-.181.506l-1.048 1.012q-.217.217-.47.217-.289 0-.47-.217L.18 16.47q-.181-.217-.181-.47 0-.289.181-.47l9.651-9.651q.181-.181.47-.181.253 0 .47.181l1.048 1.048q.181.217.181.47z"/></symbol><symbol id="icon-angle-right" viewBox="0 0 11 32"><title>angle right icon</title><path d="M10.844 16q0 .228-.195.423l-8.662 8.662q-.195.195-.423.195-.26 0-.423-.195l-.944-.912q-.195-.195-.195-.456 0-.228.195-.423L7.524 16 .197 8.673Q.002 8.478.002 8.25t.195-.423l.944-.944q.163-.163.423-.163.228 0 .423.163l8.662 8.695q.195.163.195.423z"/></symbol><symbol id="icon-angle-up" viewBox="0 0 21 32"><title>angle up icon</title><path d="M20.563 20.293q0 .253-.18.469l-1.046 1.01q-.216.216-.469.216-.289 0-.469-.216l-8.117-8.081-8.081 8.081q-.216.216-.505.216-.253 0-.469-.216l-1.01-1.01q-.216-.216-.216-.469 0-.289.216-.469l9.596-9.632q.216-.18.469-.18.289 0 .469.18l9.632 9.632q.18.18.18.469z"/></symbol><symbol id="icon-angle-down" viewBox="0 0 21 32"><title>angle down icon</title><path d="M20.563 11.725q0 .253-.18.469l-9.632 9.596q-.18.216-.469.216-.253 0-.469-.216L.217 12.194q-.216-.216-.216-.469 0-.289.216-.469l1.01-1.046q.216-.216.469-.216.289 0 .505.216l8.081 8.117 8.117-8.117q.18-.216.469-.216.253 0 .469.216l1.046 1.046q.18.18.18.469z"/></symbol><symbol id="icon-chevron-left" viewBox="0 0 24 32"><title>chevron left icon</title><path d="M21.902 5.455 11.374 16.017l10.528 10.528q.382.382.382.903t-.382.869l-3.301 3.301q-.382.382-.869.382-.521 0-.903-.382L2.097 16.886q-.382-.382-.382-.869 0-.521.382-.903L16.829.382Q17.211 0 17.732 0q.486 0 .869.382l3.301 3.301q.382.382.382.869 0 .521-.382.903z"/></symbol><symbol id="icon-chevron-right" viewBox="0 0 22 32"><title>chevron right icon</title><path d="M20.796 16.886 6.064 31.618Q5.682 32 5.161 32t-.903-.382L.957 28.317q-.382-.347-.382-.869t.382-.903l10.562-10.528L.957 5.455q-.382-.382-.382-.903 0-.486.382-.869L4.258.382Q4.64 0 5.161 0t.903.382l14.732 14.732q.347.382.347.903 0 .486-.347.869z"/></symbol><symbol id="icon-chevron-up" viewBox="0 0 32 32"><title>chevron up icon</title><path d="m31.618 22.629-3.297 3.262q-.382.382-.902.382t-.902-.382L16.001 15.375 5.485 25.891q-.382.382-.902.382t-.902-.382L.384 22.629q-.382-.382-.382-.902t.382-.902L15.1 6.109q.382-.382.902-.382t.902.382L31.62 20.825q.382.382.382.902t-.382.902z"/></symbol><symbol id="icon-chevron-down" viewBox="0 0 32 32"><title>chevron down icon</title><path d="M31.618 11.193 16.902 25.874q-.382.382-.902.382t-.902-.382L.382 11.193Q0 10.811 0 10.291t.382-.902l3.297-3.262q.382-.382.902-.382t.902.382l10.516 10.516L26.515 6.127q.382-.382.902-.382t.902.382l3.297 3.262q.382.382.382.902t-.382.902z"/></symbol><symbol id="icon-angle-double-left" viewBox="0 0 19 32"><title>angle double-left icon</title><path d="M11.334 24.091q0 .273-.171.478l-.99.956q-.205.205-.444.205-.273 0-.444-.205L.17 16.444q-.171-.205-.171-.444 0-.273.171-.444l9.115-9.115q.171-.171.444-.171.239 0 .444.171l.99.99q.171.205.171.444t-.171.444L3.482 16l7.681 7.647q.171.205.171.444zm7.51 0q0 .273-.205.478l-.99.956q-.171.205-.444.205-.239 0-.444-.205L7.68 16.444q-.205-.205-.205-.444 0-.273.205-.444l9.081-9.115q.205-.171.444-.171.273 0 .444.171l.99.99q.205.205.205.444t-.205.444L10.958 16l7.681 7.647q.205.205.205.444z"/></symbol><symbol id="icon-angle-double-right" viewBox="0 0 18 32"><title>angle double-right icon</title><path d="M10.689 16q0 .225-.193.417l-8.538 8.538q-.193.193-.417.193-.257 0-.417-.193l-.931-.899Q0 23.863 0 23.607q0-.225.193-.417L7.415 16 .193 8.778Q0 8.585 0 8.361t.193-.417l.931-.931q.161-.16.417-.16.225 0 .417.16l8.538 8.57q.193.161.193.417zm7.03 0q0 .225-.16.417l-8.57 8.538q-.161.193-.417.193-.225 0-.417-.193l-.899-.899q-.193-.193-.193-.449 0-.225.193-.417l7.19-7.19-7.19-7.222q-.193-.193-.193-.417t.193-.417l.899-.931q.193-.16.417-.16.257 0 .417.16l8.57 8.57q.16.161.16.417z"/></symbol><symbol id="icon-angle-double-up" viewBox="0 0 21 32"><title>angle double-up icon</title><path d="M20.563 24.261q0 .253-.18.469l-1.046 1.046q-.216.18-.469.18-.289 0-.469-.18l-8.117-8.117-8.081 8.117q-.216.18-.505.18-.253 0-.469-.18L.217 24.73q-.216-.216-.216-.469 0-.289.216-.469l9.596-9.632q.216-.18.469-.18.289 0 .469.18l9.632 9.632q.18.18.18.469zm0-7.936q0 .289-.18.505l-1.046 1.01q-.216.216-.469.216-.289 0-.469-.216l-8.117-8.081-8.081 8.081q-.216.216-.505.216-.253 0-.469-.216l-1.01-1.01q-.216-.216-.216-.505 0-.253.216-.469L9.813 6.26q.216-.216.469-.216.289 0 .469.216l9.632 9.596q.18.216.18.469z"/></symbol><symbol id="icon-angle-double-down" viewBox="0 0 21 32"><title>angle double-down icon</title><path d="M20.563 15.675q0 .253-.18.469l-9.632 9.596q-.18.216-.469.216-.253 0-.469-.216L.217 16.144q-.216-.216-.216-.469 0-.289.216-.469l1.01-1.046q.216-.216.469-.216.289 0 .505.216l8.081 8.117 8.117-8.117q.18-.216.469-.216.253 0 .469.216l1.046 1.046q.18.18.18.469zm0-7.936q0 .289-.18.505l-9.632 9.596q-.18.216-.469.216-.253 0-.469-.216L.217 8.244q-.216-.216-.216-.505 0-.253.216-.469l1.01-1.01q.216-.216.469-.216.289 0 .505.216l8.081 8.081 8.117-8.081q.18-.216.469-.216.253 0 .469.216l1.046 1.01q.18.216.18.469z"/></symbol><symbol id="icon-check-thin" viewBox="0 0 32 32"><title>check thin icon</title><path d="M10.155 23.083 29.44 3.798 32 6.358 10.155 28.203 0 18.048l2.56-2.56z"/></symbol><symbol id="icon-plus-thin" viewBox="0 0 32 32"><title>plus thin icon</title><path d="M32 18.255H18.255V32h-4.51V18.255H0v-4.51h13.745V0h4.51v13.745H32v4.51z"/></symbol><symbol id="icon-minus-thin" viewBox="0 0 32 32"><title>minus thin icon</title><path d="M0 13.313h32v5.375H0v-5.375z"/></symbol><symbol id="icon-close-thin" viewBox="0 0 32 32"><title>close thin icon</title><path d="M31.5 3.421 18.921 16 31.5 28.579l-3.171 3.171L15.75 19.171 3.171 31.75 0 28.579 12.579 16 0 3.421 3.171.25 15.75 12.829 28.329.25z"/></symbol><symbol id="icon-check" viewBox="0 0 32 32"><title>check icon</title><path d="M32 8.542q0 .795-.578 1.372l-17.77 17.77q-.578.578-1.372.578-.831 0-1.409-.578L.578 17.391Q0 16.813 0 15.982q0-.795.578-1.372l2.817-2.817q.578-.578 1.409-.578t1.409.578l6.068 6.068L25.789 4.317q.578-.578 1.409-.578t1.409.578l2.817 2.817q.578.578.578 1.409z"/></symbol><symbol id="icon-plus" viewBox="0 0 25 32"><title>plus icon</title><path d="M25.156 14.285v3.43c0 .947-.768 1.715-1.715 1.715h-7.433v7.433c0 .947-.768 1.715-1.715 1.715h-3.43a1.715 1.715 0 0 1-1.715-1.715V19.43H1.715A1.715 1.715 0 0 1 0 17.715v-3.43c0-.947.768-1.715 1.715-1.715h7.433V5.137c0-.947.768-1.715 1.715-1.715h3.43c.947 0 1.715.768 1.715 1.715v7.433h7.433c.947 0 1.715.768 1.715 1.715z"/></symbol><symbol id="icon-minus" viewBox="0 0 25 32"><title>minus icon</title><path d="M25.156 14.285v3.43c0 .947-.768 1.715-1.715 1.715H1.715A1.715 1.715 0 0 1 0 17.715v-3.43c0-.947.768-1.715 1.715-1.715h21.726c.947 0 1.715.768 1.715 1.715z"/></symbol><symbol id="icon-close" viewBox="0 0 25 32"><title>close icon</title><path d="M25.156 23.688q0 .815-.593 1.408l-2.89 2.89q-.593.593-1.445.593t-1.445-.593l-6.224-6.224-6.224 6.224q-.593.593-1.445.593-.815 0-1.408-.593l-2.89-2.89q-.593-.593-.593-1.408 0-.852.593-1.445l6.224-6.224L.592 9.795q-.593-.593-.593-1.445t.593-1.445l2.89-2.89q.593-.593 1.408-.593.852 0 1.445.593l6.224 6.224 6.224-6.224q.593-.593 1.445-.593t1.445.593l2.89 2.89q.593.593.593 1.445t-.593 1.445l-6.224 6.224 6.224 6.224q.593.593.593 1.445z"/></symbol><symbol id="icon-asterisk" viewBox="0 0 30 32"><title>asterisk icon</title><path d="M28.38 19.203q.946.546 1.237 1.601.291 1.092-.255 2.038l-1.347 2.293q-.546.946-1.601 1.237-1.092.291-2.038-.255l-5.532-3.203v6.406q0 1.092-.801 1.856-.764.801-1.856.801H13.53q-1.092 0-1.893-.801-.764-.764-.764-1.856v-6.406l-5.532 3.203q-.983.546-2.038.255t-1.601-1.237L.355 22.842q-.546-.946-.255-2.038.291-1.055 1.237-1.601L6.869 16l-5.532-3.203Q.391 12.251.1 11.196q-.291-1.092.255-2.038l1.347-2.293q.546-.946 1.601-1.237 1.055-.255 2.038.255l5.532 3.203V2.68q0-1.055.764-1.856.801-.801 1.893-.801h2.657q1.092 0 1.856.801.801.801.801 1.856v6.406l5.532-3.203q.946-.51 2.038-.255 1.055.291 1.601 1.237l1.347 2.293q.546.946.255 2.038-.291 1.055-1.237 1.601L22.848 16z"/></symbol><symbol id="icon-menu" viewBox="0 0 32 32"><title>menu icon</title><path d="M0 3.429h32v6.857H0zm0 9.142h32v6.857H0zm0 9.143h32v6.857H0z"/></symbol><symbol id="icon-filter" viewBox="0 0 25 32"><title>filter icon</title><path d="M25.066 4.119c.179.429.089.929-.25 1.251l-8.808 8.808v13.256c0 .465-.286.875-.697 1.054a1.317 1.317 0 0 1-.447.089c-.304 0-.59-.107-.804-.339l-4.574-4.574a1.137 1.137 0 0 1-.339-.804v-8.683L.339 5.369a1.125 1.125 0 0 1-.25-1.251c.179-.411.59-.697 1.054-.697h22.868c.465 0 .875.286 1.054.697z"/></symbol><symbol id="icon-gear" viewBox="0 0 27 32"><title>gear icon</title><path d="M18.292 16c0-2.519-2.054-4.573-4.573-4.573S9.146 13.481 9.146 16s2.054 4.573 4.573 4.573 4.573-2.054 4.573-4.573zm9.146-1.947v3.966c0 .268-.214.589-.5.643l-3.305.5a10.14 10.14 0 0 1-.697 1.626c.607.875 1.25 1.661 1.911 2.465.107.125.179.286.179.447s-.054.286-.161.411c-.429.572-2.84 3.198-3.448 3.198-.161 0-.322-.071-.464-.161l-2.465-1.929a10.8 10.8 0 0 1-1.626.679c-.125 1.09-.232 2.251-.518 3.323a.654.654 0 0 1-.643.5h-3.966c-.322 0-.607-.232-.643-.536l-.5-3.287a10.513 10.513 0 0 1-1.608-.661l-2.519 1.911c-.125.107-.286.161-.447.161s-.322-.071-.447-.197c-.947-.857-2.197-1.965-2.947-3.001a.697.697 0 0 1 .018-.822c.607-.822 1.268-1.608 1.876-2.447a9.427 9.427 0 0 1-.732-1.768l-3.269-.482c-.304-.054-.518-.339-.518-.643v-3.966c0-.268.214-.589.482-.643l3.323-.5a9.421 9.421 0 0 1 .697-1.643A43.164 43.164 0 0 0 2.59 8.732a.66.66 0 0 1-.179-.429c0-.161.071-.286.161-.411.429-.589 2.84-3.197 3.448-3.197.161 0 .322.071.464.179l2.465 1.911a10.8 10.8 0 0 1 1.626-.679c.125-1.09.232-2.251.518-3.323a.654.654 0 0 1 .643-.5h3.966c.322 0 .607.232.643.536l.5 3.287c.554.179 1.09.393 1.608.661l2.537-1.911c.107-.107.268-.161.429-.161s.322.071.447.179c.947.875 2.197 1.983 2.947 3.037a.61.61 0 0 1 .125.393.676.676 0 0 1-.143.411c-.607.822-1.268 1.608-1.876 2.447.304.572.554 1.161.732 1.751l3.269.5c.304.054.518.339.518.643z"/></symbol><symbol id="icon-gears" viewBox="0 0 34 32"><title>gears icon</title><path d="M15.998 15.991c0-2.518-2.053-4.571-4.571-4.571s-4.571 2.053-4.571 4.571 2.053 4.571 4.571 4.571 4.571-2.053 4.571-4.571zm13.712 9.142c0-1.25-1.036-2.285-2.285-2.285s-2.285 1.036-2.285 2.285a2.29 2.29 0 0 0 2.285 2.285 2.29 2.29 0 0 0 2.285-2.285zm0-18.284c0-1.25-1.036-2.285-2.285-2.285S25.14 5.6 25.14 6.849a2.29 2.29 0 0 0 2.285 2.285 2.29 2.29 0 0 0 2.285-2.285zm-6.856 7.517v3.303c0 .232-.179.5-.411.536l-2.767.428a8.133 8.133 0 0 1-.571 1.357c.5.714 1.036 1.375 1.607 2.053a.619.619 0 0 1 .125.357c0 .125-.036.25-.125.339-.357.482-2.357 2.66-2.875 2.66a.676.676 0 0 1-.375-.125l-2.053-1.607a7.571 7.571 0 0 1-1.375.553c-.089.911-.179 1.893-.411 2.767a.568.568 0 0 1-.536.428H9.766c-.25 0-.5-.196-.536-.446l-.411-2.732a8.83 8.83 0 0 1-1.339-.553l-2.107 1.589a.515.515 0 0 1-.357.125.577.577 0 0 1-.375-.143c-.464-.428-2.571-2.339-2.571-2.857a.61.61 0 0 1 .125-.339c.518-.678 1.053-1.339 1.571-2.035a9.515 9.515 0 0 1-.625-1.464l-2.714-.428a.52.52 0 0 1-.428-.518v-3.303c0-.232.179-.5.411-.536l2.768-.428c.143-.464.339-.911.571-1.357a29.026 29.026 0 0 0-1.607-2.053c-.071-.107-.125-.232-.125-.357s.036-.25.125-.357c.357-.482 2.357-2.643 2.875-2.643.143 0 .268.054.375.125l2.053 1.607a9.216 9.216 0 0 1 1.375-.571c.089-.893.179-1.875.411-2.75a.568.568 0 0 1 .536-.428h3.321c.25 0 .5.196.536.446l.411 2.732c.464.143.911.339 1.339.554l2.107-1.589a.547.547 0 0 1 .357-.125c.143 0 .268.054.375.143.464.428 2.571 2.357 2.571 2.857a.61.61 0 0 1-.125.339c-.518.696-1.053 1.339-1.553 2.035.232.482.446.964.607 1.464l2.714.411c.25.054.428.286.428.536zm11.427 9.517v2.5c0 .268-2.303.518-2.66.553a4.3 4.3 0 0 1-.536.928c.161.357.911 2.143.911 2.464 0 .054-.018.089-.071.125-.214.125-2.125 1.268-2.214 1.268-.232 0-1.571-1.785-1.75-2.053-.179.018-.357.036-.536.036s-.357-.018-.536-.036c-.179.268-1.518 2.053-1.75 2.053-.089 0-2-1.143-2.214-1.268a.153.153 0 0 1-.071-.125c0-.304.75-2.107.911-2.464a4.367 4.367 0 0 1-.536-.928c-.357-.036-2.66-.286-2.66-.553v-2.5c0-.268 2.303-.518 2.66-.553a4.78 4.78 0 0 1 .536-.928c-.161-.357-.911-2.16-.911-2.464 0-.036.018-.089.071-.125.214-.107 2.125-1.25 2.214-1.25.232 0 1.571 1.768 1.75 2.035.179-.018.357-.036.536-.036s.357.018.536.036c.5-.696 1.036-1.393 1.643-2l.107-.036c.089 0 2 1.125 2.214 1.25a.153.153 0 0 1 .071.125c0 .321-.75 2.107-.911 2.464.214.286.393.607.536.928.357.036 2.66.286 2.66.553zm0-18.283v2.5c0 .268-2.303.518-2.66.553a4.3 4.3 0 0 1-.536.928c.161.357.911 2.143.911 2.464 0 .054-.018.089-.071.125-.214.125-2.125 1.268-2.214 1.268-.232 0-1.571-1.786-1.75-2.053-.179.018-.357.036-.536.036s-.357-.018-.536-.036c-.179.268-1.518 2.053-1.75 2.053-.089 0-2-1.143-2.214-1.268a.153.153 0 0 1-.071-.125c0-.304.75-2.107.911-2.464a4.367 4.367 0 0 1-.536-.928c-.357-.036-2.66-.286-2.66-.553V5.6c0-.268 2.303-.518 2.66-.553a4.78 4.78 0 0 1 .536-.928c-.161-.357-.911-2.16-.911-2.464 0-.036.018-.089.071-.125.214-.107 2.125-1.25 2.214-1.25.232 0 1.571 1.768 1.75 2.035.179-.018.357-.036.536-.036s.357.018.536.036c.5-.696 1.036-1.393 1.643-2l.107-.036c.089 0 2 1.125 2.214 1.25a.153.153 0 0 1 .071.125c0 .321-.75 2.107-.911 2.464.214.286.393.607.536.928.357.036 2.66.286 2.66.553z"/></symbol><symbol id="icon-heart" viewBox="0 0 32 32"><title>heart icon</title><path d="M16 29.719q-.469 0-.781-.313L4.063 18.656l-.469-.469-1-1.188q-.688-.844-1.219-1.719-.531-.906-.969-2.156Q0 11.843 0 10.655q0-3.938 2.281-6.156 2.25-2.219 6.25-2.219 1.125 0 2.25.406 1.156.375 2.156 1.031t1.719 1.219q.688.563 1.344 1.219.656-.656 1.344-1.219.719-.563 1.719-1.219t2.156-1.031q1.125-.406 2.25-.406 4 0 6.25 2.219Q32 6.718 32 10.655t-4.094 8.031L16.781 29.405q-.313.313-.781.313z"/></symbol><symbol id="icon-star" viewBox="0 0 30 32"><title>star icon</title><path d="M29.719 12.828q0 .375-.469.844l-6.469 6.344 1.531 8.906v.375q0 .375-.188.625t-.531.25-.719-.219l-8.031-4.188-8 4.188q-.406.219-.719.219-.375 0-.563-.25t-.188-.625q0-.125.031-.375l1.531-8.906-6.5-6.344q-.438-.469-.438-.844 0-.656 1-.813l8.969-1.313 4-8.125q.344-.75.875-.75.563 0 .875.75l4.031 8.125 8.969 1.313q1 .156 1 .813z"/></symbol><symbol id="icon-pencil" viewBox="0 0 27 32"><title>pencil icon</title><path d="m6.469 27.25 1.625-1.625-4.188-4.188-1.625 1.625v1.906h2.281v2.281h1.906zm9.344-16.563q0-.406-.375-.406-.188 0-.313.125l-9.688 9.688q-.125.125-.125.281 0 .406.406.406.188 0 .313-.125l9.656-9.688q.125-.125.125-.281zm-.969-3.437 7.438 7.438L7.438 29.532H0v-7.438zm12.219 1.719q0 .938-.656 1.594l-2.969 2.969L16 6.094l2.969-2.938q.625-.688 1.594-.688t1.625.688l4.219 4.188q.656.688.656 1.625z"/></symbol><symbol id="icon-quill" viewBox="0 0 32 32"><title>quill icon</title><path d="M0 32q1.5-4.5 4.219-10.063t6.703-10.438 9.25-8.188T32-.002q-3.094 2.469-5.438 6.219t-4.391 7.25-3.984 6.016-4.188 2.516h-6l-6 10h-2z"/></symbol><symbol id="icon-pen" viewBox="0 0 32 32"><title>pen icon</title><path d="M31.82 9.12 22.88.18q-.219-.219-.469-.172t-.375.297l-1.219 2.501 8.377 8.377 2.501-1.219q.25-.125.297-.375t-.172-.469zM19.223 4.212l-8.221.688q-.406.063-.719.219t-.438.688q-.844 4.032-2.485 7.846t-3.282 6.783-2.86 4.767L-.001 27l1.782 1.782 8.502-8.502q-.125-.281-.203-.61t-.078-.672q0-1.25.875-2.125t2.126-.875 2.126.875.875 2.125-.875 2.125-2.126.875q-.344 0-.672-.078t-.61-.203l-8.502 8.502 1.782 1.782 1.797-1.219 4.767-2.86 6.783-3.282 7.846-2.485q.531-.125.688-.438t.219-.719l.688-8.221-8.564-8.564z"/></symbol><symbol id="icon-tv" viewBox="0 0 32 32"><title>tv icon</title><path d="M30.656 9q-2.063-.281-4.281-.5t-4.531-.344L27 3l-2-2-7.031 7.031Q17.5 8 17 8h-1L8 0 6 2l6.063 6.063q-1.406.063-2.797.141t-2.734.203-2.641.266-2.547.328Q1 10.282.766 11.595T.36 14.298t-.266 2.813T0 20.002t.094 2.891.266 2.813.406 2.703.578 2.594q1.688.25 3.453.438t3.609.313 3.734.188 3.859.063 3.859-.063 3.734-.188 3.609-.313 3.453-.438q.344-1.281.578-2.594t.406-2.703.266-2.813.094-2.891-.094-2.891-.266-2.813-.406-2.703-.578-2.594zM27 27.344q-1.281.156-2.594.281t-2.703.203-2.813.125-2.891.047-2.891-.047-2.813-.125-2.703-.203-2.594-.281q-.469-1.688-.734-3.531T3.998 20t.266-3.813.734-3.531q1.281-.156 2.594-.281t2.703-.203 2.813-.125T15.999 12t2.891.047 2.813.125 2.703.203 2.594.281q.469 1.688.734 3.531T28 20t-.266 3.813T27 27.344z"/></symbol><symbol id="icon-video" viewBox="0 0 32 32"><title>video icon</title><path d="M0 4v24h32V4H0zm6 22H2v-4h4v4zm0-8H2v-4h4v4zm0-8H2V6h4v4zm18 16H8V6h16v20zm6 0h-4v-4h4v4zm0-8h-4v-4h4v4zm0-8h-4V6h4v4zm-18 0v12l8-6z"/></symbol><symbol id="icon-camera" viewBox="0 0 32 32"><title>camera icon</title><path d="M12 9q0-2.063 1.469-3.531T17 4t3.531 1.469T22 9t-1.469 3.531T17 14t-3.531-1.469T12 9zM0 9q0-2.063 1.469-3.531T5 4t3.531 1.469T10 9t-1.469 3.531T5 14t-3.531-1.469T0 9zm24 10v-3q0-.813-.594-1.406T22 14H2q-.813 0-1.406.594T0 16v10q0 .813.594 1.406T2 28h20q.813 0 1.406-.594T24 26v-3l8 5V14zm-4 5H4v-6h16v6z"/></symbol><symbol id="icon-film" viewBox="0 0 34 32"><title>film icon</title><path d="M6.844 27.422v-2.281q0-.469-.313-.781-.344-.344-.813-.344H3.437q-.469 0-.813.344-.344.313-.344.781v2.281q0 .469.344.813t.813.344h2.281q.469 0 .813-.344.313-.344.313-.813zm0-6.844v-2.281q0-.469-.313-.813-.344-.344-.813-.344H3.437q-.469 0-.813.344t-.344.813v2.281q0 .469.344.813t.813.344h2.281q.469 0 .813-.344.313-.344.313-.813zm0-6.844v-2.313q0-.438-.313-.781-.344-.344-.813-.344H3.437q-.469 0-.813.344t-.344.781v2.313q0 .438.344.781t.813.344h2.281q.469 0 .813-.344.313-.344.313-.781zm18.312 13.688v-9.125q0-.469-.344-.813t-.813-.344H10.28q-.469 0-.813.344-.313.344-.313.813v9.125q0 .469.313.813.344.344.813.344h13.719q.469 0 .813-.344t.344-.813zM6.844 6.859V4.578q0-.469-.313-.813-.344-.344-.813-.344H3.437q-.469 0-.813.344t-.344.813v2.281q0 .469.344.813t.813.344h2.281q.469 0 .813-.344.313-.344.313-.813zM32 27.422v-2.281q0-.469-.344-.781-.344-.344-.813-.344h-2.281q-.469 0-.781.344-.344.313-.344.781v2.281q0 .469.344.813.313.344.781.344h2.281q.469 0 .813-.344t.344-.813zm-6.844-13.688V4.578q0-.469-.344-.813t-.813-.344H10.28q-.469 0-.813.344-.313.344-.313.813v9.156q0 .438.313.781.344.344.813.344h13.719q.469 0 .813-.344t.344-.781zM32 20.578v-2.281q0-.469-.344-.813t-.813-.344h-2.281q-.469 0-.781.344-.344.344-.344.813v2.281q0 .469.344.813.313.344.781.344h2.281q.469 0 .813-.344t.344-.813zm0-6.844v-2.313q0-.438-.344-.781t-.813-.344h-2.281q-.469 0-.781.344-.344.344-.344.781v2.313q0 .438.344.781.313.344.781.344h2.281q.469 0 .813-.344t.344-.781zm0-6.875V4.578q0-.469-.344-.813t-.813-.344h-2.281q-.469 0-.781.344-.344.344-.344.813v2.281q0 .469.344.813.313.344.781.344h2.281q.469 0 .813-.344T32 6.859zm2.281-2.843v24q0 1.156-.844 2t-2 .844H2.843q-1.156 0-2-.844t-.844-2v-24q0-1.188.844-2.031t2-.844h28.594q1.156 0 2 .844t.844 2.031z"/></symbol><symbol id="icon-book" viewBox="0 0 30 32"><title>book icon</title><path d="M29.336 8.519q.689 1.033.313 2.316l-4.914 16.213q-.344 1.127-1.377 1.909t-2.191.782H4.672q-1.377 0-2.66-.97Q.729 27.83.228 26.422q-.438-1.189-.031-2.254 0-.094.031-.501.063-.407.094-.657 0-.125-.063-.376t-.063-.344q.031-.219.156-.376.094-.188.282-.438.188-.219.313-.407.407-.689.782-1.628.407-.97.563-1.659.031-.157 0-.532-.063-.344 0-.501.031-.188.282-.501t.313-.407q.376-.657.751-1.659t.438-1.596q.031-.156-.031-.563t0-.501q.063-.25.407-.563.313-.313.376-.407.344-.438.782-1.502.407-1.033.47-1.721.031-.157-.031-.47-.094-.313-.063-.47.063-.125.188-.313t.313-.407q.188-.25.313-.376.125-.219.282-.563.157-.313.282-.626.094-.282.282-.626.157-.344.344-.563.188-.25.47-.438t.657-.188q.344-.031.845.094l-.031.031q.689-.156.908-.156h13.615q1.315 0 2.034 1.002t.344 2.347l-4.914 16.182q-.657 2.128-1.283 2.754t-2.285.626H2.794q-.47 0-.689.25-.188.282 0 .782.438 1.252 2.567 1.252h16.526q.501 0 1.002-.282.47-.282.626-.751l5.352-17.653q.125-.376.094-1.002.689.25 1.064.751zm-19.03.032q-.094.25.031.407.094.188.344.188h10.892q.219 0 .438-.188.219-.156.313-.407l.376-1.127q.063-.25-.063-.407-.094-.157-.344-.157H11.432q-.25 0-.47.157t-.282.407zm-1.503 4.601q-.063.219.031.407.125.156.376.156h10.861q.25 0 .47-.156.219-.188.282-.407l.376-1.158q.063-.219-.031-.407-.094-.156-.344-.156H9.932q-.219 0-.438.156-.25.188-.313.407z"/></symbol><symbol id="icon-books" viewBox="0 0 36 32"><title>books icon</title><path d="M7.333 3.421H1.047q-.426 0-.737.311t-.311.737v23.049q0 .426.311.737t.737.311h6.286q.426 0 .737-.311t.311-.737V4.469q0-.426-.311-.737t-.737-.311zM6.286 9.707H2.095V7.612h4.191v2.095zM17.81 3.421h-6.286q-.426 0-.737.311t-.311.737v23.049q0 .426.311.737t.737.311h6.286q.426 0 .737-.311t.311-.737V4.469q0-.426-.311-.737t-.737-.311zm-1.048 6.286h-4.191V7.612h4.191v2.095zm8.284-4.682-5.598 2.848q-.393.196-.524.606t.033.802l9.429 18.694q.196.393.622.54t.786-.049l5.631-2.848q.393-.196.524-.606t-.065-.802L26.455 5.516q-.196-.393-.606-.524t-.802.033zm5.336 22.492q0 .426-.311.737t-.737.311-.737-.311-.311-.737.311-.737.737-.311.737.311.311.737z"/></symbol><symbol id="icon-search" viewBox="0 0 30 32"><title>search icon</title><path d="M20.563 13.734q0-3.313-2.344-5.656t-5.656-2.344q-3.281 0-5.656 2.344-2.344 2.344-2.344 5.656 0 3.281 2.344 5.625 2.375 2.375 5.656 2.375 3.313 0 5.656-2.375 2.344-2.344 2.344-5.625zm9.156 14.844q0 .938-.688 1.594-.688.688-1.594.688-.969 0-1.625-.688l-6.125-6.094q-3.188 2.219-7.125 2.219-2.531 0-4.875-1t-4.031-2.688-2.656-4q-1-2.344-1-4.875 0-2.563 1-4.906.969-2.313 2.656-4T7.687 2.14t4.875-1q2.563 0 4.906 1 2.313 1 4 2.688t2.688 4q1 2.344 1 4.906 0 3.906-2.219 7.125l6.125 6.125q.656.656.656 1.594z"/></symbol><symbol id="icon-home" viewBox="0 0 30 32"><title>home icon</title><path d="M25.488 17.79v8.838q0 .484-.355.839t-.839.355H17.23v-7.096h-4.742v7.096H5.424q-.484 0-.839-.355t-.355-.839V17.79q0-.032.032-.064v-.032l10.58-8.741 10.612 8.741q.032.032.032.097zm4.096-1.258-1.129 1.355q-.161.161-.387.194h-.064q-.258 0-.387-.129L14.843 7.307 2.102 17.952q-.226.161-.452.129t-.387-.194L.134 16.532q-.161-.194-.129-.452 0-.258.194-.387L13.456 4.661q.581-.484 1.387-.484.839 0 1.419.484l4.484 3.742v-3.58q0-.258.161-.419.194-.194.452-.194h3.516q.258 0 .419.194.194.161.194.419v7.516l4.032 3.355q.161.129.194.387t-.129.452z"/></symbol><symbol id="icon-tag" viewBox="0 0 27 32"><title>tag icon</title><path d="M8 8.187q0-.938-.656-1.625-.688-.656-1.625-.656t-1.625.656q-.656.688-.656 1.625t.656 1.625q.688.656 1.625.656t1.625-.656Q8 9.124 8 8.187zm19.063 10.282q0 .969-.656 1.625l-8.781 8.781q-.688.656-1.625.656t-1.594-.656L1.626 16.094Q.938 15.438.47 14.281t-.469-2.094V4.749q0-.906.688-1.594.656-.688 1.594-.688h7.438q.938 0 2.094.469 1.125.5 1.813 1.156l12.781 12.75q.656.719.656 1.625z"/></symbol><symbol id="icon-calendar" viewBox="0 0 30 32"><title>calendar icon</title><path d="M2.281 29.719h5.156v-5.156H2.281v5.156zm6.282 0h5.719v-5.156H8.563v5.156zm-6.282-6.281h5.156v-5.719H2.281v5.719zm6.282 0h5.719v-5.719H8.563v5.719zm-6.282-6.875h5.156v-5.125H2.281v5.125zm13.157 13.156h5.719v-5.156h-5.719v5.156zM8.563 16.563h5.719v-5.125H8.563v5.125zm13.718 13.156h5.156v-5.156h-5.156v5.156zm-6.843-6.281h5.719v-5.719h-5.719v5.719zM9.156 8V2.875q0-.25-.188-.406-.156-.188-.406-.188H7.437q-.25 0-.406.188-.188.156-.188.406V8q0 .25.188.406.156.156.406.156h1.125q.25 0 .406-.156.188-.156.188-.406zm13.125 15.438h5.156v-5.719h-5.156v5.719zm-6.843-6.875h5.719v-5.125h-5.719v5.125zm6.843 0h5.156v-5.125h-5.156v5.125zM22.844 8V2.875q0-.25-.156-.406-.156-.188-.406-.188h-1.125q-.25 0-.406.188-.188.156-.188.406V8q0 .25.188.406.156.156.406.156h1.125q.25 0 .406-.156T22.844 8zm6.875-1.125v22.844q0 .938-.688 1.594-.688.688-1.594.688H2.281q-.938 0-1.594-.688-.688-.656-.688-1.594V6.875q0-.938.688-1.625.656-.688 1.594-.688h2.281V2.874q0-1.188.844-2.031t2.031-.844h1.125q1.188 0 2.031.844t.844 2.031v1.688h6.844V2.874q0-1.188.844-2.031t2.031-.844h1.125q1.188 0 2.031.844t.844 2.031v1.688h2.281q.906 0 1.594.688t.688 1.625z"/></symbol><symbol id="icon-comment" viewBox="0 0 32 32"><title>comment icon</title><path d="M32 13.717q0 3.125-2.156 5.75-2.125 2.625-5.813 4.156T16 25.154q-1.25 0-2.594-.156-3.531 3.125-8.219 4.344-.875.25-2.031.375-.313.031-.531-.156-.25-.188-.313-.531-.063-.063-.031-.219.063-.156.063-.188-.031-.031.063-.156l.375-.469q.125-.156.563-.625t.625-.688q.188-.188.531-.688.375-.5.594-.906.219-.438.469-1.063.281-.656.469-1.375-2.813-1.563-4.406-3.906Q.002 16.403.002 13.716q0-2.313 1.281-4.438 1.25-2.125 3.406-3.656 2.125-1.531 5.094-2.438t6.219-.906q4.344 0 8.031 1.531t5.813 4.156q2.156 2.656 2.156 5.75z"/></symbol><symbol id="icon-comments" viewBox="0 0 32 32"><title>comments icon</title><path d="M25.156 12.576q0 2.469-1.688 4.594-1.688 2.094-4.594 3.313-2.906 1.25-6.313 1.25-1.531 0-3.125-.313-2.219 1.594-4.969 2.313-.656.156-1.531.281h-.063q-.188 0-.375-.156-.156-.125-.188-.375-.031-.063-.031-.125v-.094l.063-.125.031-.094.125-.188q.031.031.094-.063.063-.125.063-.094.094-.094.406-.438.344-.344.469-.531.156-.188.406-.531.25-.313.438-.688.188-.344.375-.781Q2.53 18.45 1.28 16.575q-1.281-1.875-1.281-4 0-2.469 1.688-4.594Q3.343 5.887 6.25 4.668q2.906-1.25 6.313-1.25t6.313 1.25q2.906 1.219 4.594 3.313 1.688 2.125 1.688 4.594zM32 17.138q0 2.156-1.281 4.031-1.25 1.844-3.469 3.125.188.438.375.813.188.344.438.688.25.313.406.5.125.188.469.531.313.344.406.438 0 .031.063.094l.094.094.063.094.063.094.031.094.063.094q.031.094 0 .125-.031 0-.031.094-.031.25-.219.406t-.406.125q-.875-.125-1.531-.281-2.75-.719-4.969-2.281-1.594.281-3.125.281-4.844 0-8.438-2.375 1.031.094 1.563.094 2.875 0 5.531-.813 2.625-.813 4.719-2.313 2.219-1.625 3.406-3.781 1.219-2.125 1.219-4.531 0-1.375-.406-2.719 2.281 1.281 3.625 3.188t1.344 4.094z"/></symbol><symbol id="icon-inbox" viewBox="0 0 27 32"><title>inbox icon</title><path d="M18.281 17.156h5.625q0-.063-.031-.156t-.063-.125L20.031 8H7.406l-3.813 8.875q0 .031-.031.125-.031.125-.031.156h5.625l1.688 3.406h5.719zm9.157.532v8.594q0 .469-.344.813t-.813.344H1.156q-.469 0-.813-.344t-.344-.813v-8.594q0-1.125.438-2.188l4.25-9.875q.188-.438.656-.75t.938-.313h14.875q.438 0 .938.313.469.313.625.75l4.25 9.875q.469 1.063.469 2.188z"/></symbol><symbol id="icon-folder" viewBox="0 0 34 32"><title>folder icon</title><path d="M33.563 18.141q0 .563-.563 1.188l-6 7.063q-.781.906-2.156 1.563-1.375.625-2.563.625H2.843q-.594 0-1.063-.25-.469-.219-.469-.75 0-.563.531-1.188l6-7.063q.781-.906 2.156-1.563 1.406-.625 2.563-.625h19.438q.594 0 1.094.25.469.219.469.75zm-6.125-6.125v2.844H12.563q-1.656 0-3.5.844t-2.938 2.125L.031 25.017q0-.063-.031-.219V7.423Q0 5.798 1.188 4.61q1.156-1.188 2.813-1.188H9.72q1.625 0 2.813 1.188t1.188 2.813v.594h9.719q1.625 0 2.813 1.156 1.188 1.188 1.188 2.844z"/></symbol><symbol id="icon-envelope" viewBox="0 0 32 32"><title>envelope icon</title><path d="M32 11.547v14.188q0 1.156-.844 2t-2 .844H2.843q-1.156 0-2-.844t-.844-2V11.547q.781.875 1.813 1.563 6.469 4.375 8.875 6.156 1 .75 1.656 1.156.625.438 1.688.875 1.031.438 1.938.438h.063q.906 0 1.938-.438 1.063-.438 1.688-.875.656-.406 1.656-1.156 3.031-2.219 8.906-6.156 1-.719 1.781-1.563zm0-5.25q0 1.406-.875 2.688t-2.188 2.188q-6.719 4.688-8.344 5.813-.188.125-.75.563-.594.406-.969.656-.406.281-.938.594t-1.031.469q-.469.156-.875.156h-.063q-.406 0-.875-.156-.5-.156-1.031-.469t-.938-.594q-.375-.25-.969-.656-.563-.438-.75-.563-1.625-1.125-4.688-3.25L3.06 11.173Q1.966 10.423.966 9.11q-.969-1.313-.969-2.438 0-1.375.75-2.313.719-.938 2.094-.938h26.313q1.156 0 2 .844t.844 2.031z"/></symbol><symbol id="icon-paper-plane" viewBox="0 0 32 32"><title>paper-plane icon</title><path d="M31.537.188q.594.438.469 1.156l-4.563 27.438q-.094.5-.563.781-.25.156-.563.156-.188 0-.438-.094l-8.063-3.313-4.344 5.281q-.313.406-.875.406-.219 0-.375-.063-.344-.125-.563-.438-.188-.281-.188-.625v-6.25L26.877 5.717 7.814 22.248.751 19.342q-.656-.25-.719-.969-.031-.719.563-1.063L30.314.154q.281-.156.563-.156.375 0 .656.188z"/></symbol><symbol id="icon-monitor" viewBox="0 0 34 32"><title>monitor icon</title><path d="M32 22.281V5.156q0-.25-.156-.406-.188-.188-.406-.188H2.844q-.219 0-.375.188-.188.156-.188.406v17.125q0 .25.188.406.156.188.375.188h28.594q.219 0 .406-.188.156-.156.156-.406zm2.281-17.125v17.125q0 1.188-.844 2.031t-2 .844H18.281v2.281h6.281q.25 0 .406.156.188.156.188.406v1.156q0 .25-.188.406-.156.156-.406.156H9.718q-.25 0-.406-.156t-.156-.406v-1.156q0-.25.156-.406t.406-.156h6.281v-2.281H2.843q-1.156 0-2-.844t-.844-2.031V5.156q0-1.188.844-2.031t2-.844h28.594q1.156 0 2 .844t.844 2.031z"/></symbol><symbol id="icon-pinterest" viewBox="0 0 23 32"><title>pinterest icon</title><path d="M0 11.797q0-1.906.656-3.625.688-1.719 1.875-2.969 1.156-1.281 2.688-2.188 1.563-.938 3.313-1.406 1.781-.469 3.625-.469 2.813 0 5.25 1.188 2.406 1.188 3.938 3.469 1.5 2.25 1.5 5.125 0 1.719-.313 3.344-.344 1.656-1.094 3.156-.719 1.531-1.781 2.688t-2.594 1.844-3.375.688q-1.219 0-2.406-.594-1.188-.563-1.719-1.563-.156.688-.5 2-.313 1.313-.406 1.719-.094.375-.375 1.25-.25.875-.469 1.281-.188.375-.563 1.094-.375.75-.813 1.406-.469.656-1.125 1.531l-.25.094-.156-.188q-.25-2.781-.25-3.344 0-1.656.375-3.688.375-2.063 1.188-5.125.813-3.094.938-3.625-.594-1.188-.594-3.031 0-1.469.938-2.781t2.344-1.313q1.094 0 1.719.719.594.719.594 1.844 0 1.188-.781 3.406t-.781 3.344.813 1.875q.781.719 1.938.719.969 0 1.813-.438t1.406-1.219q.563-.75 1-1.688t.688-1.969q.219-1.063.344-2t.125-1.781q0-3.063-1.969-4.813-1.938-1.719-5.094-1.719-3.563 0-5.969 2.313-2.375 2.313-2.375 5.875 0 .781.219 1.531.219.719.469 1.156.281.406.5.813.219.375.219.531 0 .5-.281 1.313-.25.813-.656.813-.031 0-.313-.063-.906-.281-1.594-1-.719-.75-1.094-1.688-.375-.969-.594-1.938-.188-.969-.188-1.906z"/></symbol><symbol id="icon-digg" viewBox="0 0 37 32"><title>digg icon</title><path d="M5.844 5.031H9.5v17.563H0V10.156h5.844V5.031zm0 14.625v-6.594H3.656v6.594h2.188zm5.125-9.5v12.438h3.656V10.156h-3.656zm0-5.125v3.656h3.656V5.031h-3.656zm5.125 5.125h9.5v16.813h-9.5v-2.906h5.844v-1.469h-5.844V10.156zm5.844 9.5v-6.594H19.75v6.594h2.188zm5.125-9.5h9.5v16.813h-9.5v-2.906h5.844v-1.469h-5.844V10.156zm5.843 9.5v-6.594h-2.188v6.594h2.188z"/></symbol><symbol id="icon-reddit" viewBox="0 0 32 32"><title>reddit icon</title><path d="M32 16.016q0 1.031-.531 1.875t-1.406 1.281q.219.844.219 1.719 0 2.781-1.906 5.125-1.906 2.375-5.188 3.719-3.281 1.375-7.156 1.375-3.844 0-7.125-1.375-3.281-1.344-5.188-3.719-1.906-2.344-1.906-5.125 0-.844.219-1.688-.938-.438-1.469-1.313Q0 17.046 0 16.015q0-1.469 1.031-2.531 1.031-1.031 2.531-1.031t2.594 1.125q3.875-2.719 9.188-2.906l2.063-9.281q.063-.25.281-.375.219-.156.469-.094L24.72 2.36q.344-.656.969-1.063.656-.406 1.406-.406 1.125 0 1.906.781t.781 1.875q0 1.125-.781 1.906t-1.906.781q-1.094 0-1.875-.781t-.781-1.875L18.47 2.265l-1.844 8.406q5.344.156 9.281 2.875 1.031-1.094 2.531-1.094t2.531 1.031Q32 14.546 32 16.014zM7.469 19.547q0 1.125.781 1.906t1.875.781 1.906-.781q.781-.781.781-1.906 0-1.094-.781-1.875-.813-.781-1.906-.781t-1.875.781-.781 1.875zm14.469 6.344q.188-.188.188-.469 0-.25-.188-.469-.188-.156-.469-.156-.25 0-.438.156-.75.75-2.188 1.125-1.406.344-2.844.344t-2.844-.344q-1.438-.375-2.188-1.125-.188-.156-.438-.156-.281 0-.469.156-.188.188-.188.469t.188.469q.781.781 2.125 1.219t2.188.531q.844.063 1.625.063t1.625-.063q.844-.094 2.188-.531t2.125-1.219zm-.063-3.657q1.094 0 1.875-.781t.781-1.906q0-1.094-.781-1.875t-1.875-.781-1.906.781q-.781.781-.781 1.875 0 1.125.781 1.906.813.781 1.906.781z"/></symbol><symbol id="icon-linkedin" viewBox="0 0 27 32"><title>linkedin icon</title><path d="M6.219 11.391V29.11H.344V11.391h5.875zm.375-5.469q.031 1.313-.875 2.187-.938.875-2.438.875H3.25q-1.469 0-2.344-.875Q0 7.234 0 5.921t.906-2.188q.938-.844 2.406-.844 1.5 0 2.375.844.906.875.906 2.188zm20.844 13.031v10.156h-5.875V19.64q0-1.875-.719-2.938-.75-1.063-2.281-1.063-1.125 0-1.875.594-.75.625-1.125 1.531-.219.531-.219 1.469v9.875H9.469q.063-7.125.063-11.563t-.031-5.281l-.031-.875h5.875v2.594h-.031q.375-.594.75-1 .375-.438 1-.938t1.563-.781q.906-.281 2.031-.281 3.063 0 4.906 2.031 1.875 2.031 1.875 5.938z"/></symbol><symbol id="icon-instagram" viewBox="0 0 27 32"><title>instagram icon</title><path d="M18.281 16q0-1.875-1.344-3.219t-3.219-1.344q-1.906 0-3.25 1.344Q9.155 14.125 9.155 16q0 1.906 1.313 3.25 1.344 1.313 3.25 1.313 1.875 0 3.219-1.313 1.344-1.344 1.344-3.25zm2.469 0q0 2.938-2.063 5-2.031 2.031-4.969 2.031t-5-2.031q-2.031-2.063-2.031-5t2.031-4.969q2.063-2.063 5-2.063t4.969 2.063Q20.75 13.062 20.75 16zm1.938-7.313q0 .688-.5 1.156-.469.469-1.156.469t-1.156-.469-.469-1.156.469-1.156q.469-.5 1.156-.5t1.156.5q.5.469.5 1.156zM13.719 4.75h-3.25q-.656 0-1.719.063-1.094.031-1.844.156-.75.156-1.281.344-.906.344-1.563 1.031-.688.688-1.031 1.563-.219.531-.344 1.281t-.188 1.844q-.031 1.094-.031 1.719-.031.656 0 1.875v2.75q-.031 1.25 0 1.875 0 .656.031 1.719.063 1.094.188 1.844t.344 1.281q.344.906 1.031 1.563.656.688 1.563 1.031.531.219 1.281.344t1.844.188q1.063.031 1.719.031.625.031 1.875 0h2.75q1.219.031 1.875 0 .625 0 1.719-.031 1.094-.063 1.844-.188t1.281-.344q.875-.344 1.563-1.031.688-.656 1.031-1.563.188-.531.344-1.281.125-.75.156-1.844.063-1.063.063-1.719v-6.5q0-.625-.063-1.719-.031-1.094-.156-1.844-.156-.75-.344-1.281-.344-.875-1.031-1.563t-1.563-1.031q-.531-.188-1.281-.344-.75-.125-1.844-.156-1.094-.063-1.719-.063h-3.25zM27.438 16q0 4.094-.094 5.656-.188 3.719-2.219 5.75t-5.75 2.219q-1.563.094-5.656.094t-5.656-.094q-3.719-.188-5.75-2.219t-2.219-5.75Q0 20.093 0 16t.094-5.656q.188-3.719 2.219-5.75t5.75-2.219q1.563-.094 5.656-.094t5.656.094q3.719.188 5.75 2.219t2.219 5.75q.094 1.563.094 5.656z"/></symbol><symbol id="icon-facebook" viewBox="0 0 19 32"><title>facebook icon</title><path d="M17.718.236v5.081H14.69q-1.649 0-2.221.673-.572.707-.572 2.086v3.634h5.619l-.74 5.687h-4.879v14.604H6.008V17.397H1.095V11.71h4.913V7.538q0-3.6 1.985-5.552Q10.012.001 13.343.001q2.826 0 4.374.236z"/></symbol><symbol id="icon-youtube" viewBox="0 0 32 32"><title>youtube icon</title><path d="M22.844 16q0-.656-.531-.969l-9.125-5.719q-.563-.344-1.156-.031-.594.344-.594 1v11.438q0 .688.594 1 .281.156.531.156.375 0 .625-.188l9.125-5.719q.531-.313.531-.969zM32 16q0 1.719-.031 2.688 0 .969-.125 2.438-.156 1.469-.406 2.625-.281 1.313-1.25 2.188-.938.906-2.219 1.063-3.938.438-11.969.438t-11.969-.438q-1.281-.156-2.25-1.063-.938-.875-1.219-2.188-.25-1.156-.406-2.625-.125-1.469-.125-2.438Q0 17.719 0 16t.031-2.688q0-.938.125-2.438.156-1.469.406-2.625.281-1.313 1.25-2.188.938-.906 2.219-1.031Q7.969 4.561 16 4.561t11.969.469q1.281.125 2.25 1.031.938.875 1.219 2.188.25 1.156.406 2.625.125 1.5.125 2.438Q32 14.281 32 16z"/></symbol><symbol id="icon-youtube-logo" viewBox="0 0 27 32"><title>youtube logo icon</title><path d="M17.359 22.219V26q0 1.188-.688 1.188-.438 0-.813-.406v-5.375q.375-.375.813-.375.688 0 .688 1.188zm6.032.031v.813h-1.594v-.813q0-1.219.781-1.219.813 0 .813 1.219zm-17.25-3.906h1.906v-1.688H2.484v1.688h1.875V28.5H6.14V18.344zM11.297 28.5h1.563v-8.813h-1.563v6.75q-.563.75-1.031.75-.313 0-.375-.375-.031-.063-.031-.625v-6.5H8.297v6.969q0 .875.125 1.313.219.656 1.031.656.875 0 1.844-1.094v.969zm7.656-2.625v-3.531q0-1.313-.156-1.781-.313-1-1.281-1-.906 0-1.656.969v-3.875h-1.594v11.844h1.594v-.844q.813.969 1.656.969.969 0 1.281-.969.156-.5.156-1.781zm6.031-.187v-.25h-1.625q0 .938-.031 1.094-.125.656-.719.656-.813 0-.813-1.25v-1.531h3.188v-1.844q0-1.406-.5-2.063-.688-.938-1.875-.938-1.219 0-1.906.938-.5.656-.5 2.063v3.094q0 1.406.5 2.063.719.906 1.938.906 1.281 0 1.938-.938.313-.5.375-.969.031-.156.031-1.031zM14.109 9.375v-3.75q0-1.219-.75-1.219-.781 0-.781 1.219v3.75q0 1.25.781 1.25.75 0 .75-1.25zm12.844 13.406q0 4.188-.469 6.25-.25 1.063-1.031 1.781t-1.813.813Q20.359 32 13.734 32t-9.906-.375q-1.031-.094-1.844-.813-.781-.719-1.031-1.781-.469-2-.469-6.25 0-4.156.469-6.25.25-1.031 1.031-1.75.813-.719 1.844-.844 3.281-.375 9.906-.375t9.906.375q1.031.125 1.844.844.781.719 1 1.75.469 2 .469 6.25zM9.141 0h1.813L8.798 7.125v4.844H7.017V7.125q-.25-1.313-1.094-3.781Q5.267 1.5 4.767 0h1.906l1.25 4.688zm6.593 5.938v3.125q0 1.469-.5 2.125-.656.906-1.875.906-1.188 0-1.875-.906-.5-.688-.5-2.125V5.938q0-1.406.5-2.063.688-.938 1.875-.938 1.219 0 1.875.938.5.656.5 2.063zm6-2.875v8.906h-1.625V11q-.938 1.094-1.844 1.094-.813 0-1.063-.656-.125-.438-.125-1.344V3.063h1.625v7.188q.063.375.375.375.5 0 1.031-.75V3.063h1.625z"/></symbol><symbol id="icon-twitter" viewBox="0 0 30 32"><title>twitter icon</title><path d="M29.719 6.797q-1.286 1.847-3.068 3.166.033.264.033.792 0 2.441-.726 4.882t-2.177 4.684-3.463 3.958q-2.045 1.748-4.882 2.771t-6.069 1.023q-5.113 0-9.368-2.738.66.066 1.484.066 4.222 0 7.553-2.606-1.979-.033-3.562-1.187-1.55-1.187-2.144-3.035.627.099 1.154.099.825 0 1.616-.198-2.111-.429-3.496-2.111-1.385-1.649-1.385-3.859v-.066q1.286.693 2.738.759-1.253-.825-1.979-2.177-.726-1.319-.726-2.903 0-1.649.825-3.068 2.276 2.804 5.541 4.486 3.265 1.715 7.026 1.88-.165-.693-.165-1.385 0-2.54 1.781-4.321t4.321-1.781q2.639 0 4.42 1.946 2.078-.396 3.892-1.484-.726 2.177-2.705 3.364 1.781-.198 3.529-.957z"/></symbol><symbol id="icon-stumbleupon" viewBox="0 0 34 32"><title>stumbleupon icon</title><path d="M18.969 12.719v-2.094q0-.75-.531-1.313-.531-.531-1.281-.531t-1.313.531q-.531.563-.531 1.313v10.906q0 3.125-2.25 5.344t-5.406 2.219q-3.188 0-5.406-2.25-2.25-2.219-2.25-5.406v-4.75h5.844v4.688q0 .75.563 1.281.531.531 1.281.531t1.281-.531.531-1.281V10.282q0-3.031 2.25-5.219 2.281-2.156 5.406-2.156t5.375 2.188 2.25 5.25v2.438l-3.469 1.031zm9.469 3.969h5.844v4.75q0 3.188-2.25 5.406-2.219 2.25-5.406 2.25-3.156 0-5.406-2.219T18.97 21.5v-4.781l2.344 1.094 3.469-1.031v4.813q0 .75.531 1.281t1.281.531 1.313-.531q.531-.531.531-1.281v-4.906z"/></symbol><symbol id="icon-librarything" viewBox="0 0 32 32"><title>librarything icon</title><path d="M13.2 6.376v-.573l-.04-.613c0-.173-.067-.44-.187-.8a2.833 2.833 0 0 1-.173-.92v-.004c0-.18.089-.339.225-.435l.002-.001.467-.373a1.246 1.246 0 0 1 .816-.24h-.003c.213 0 .547.027 1.027.093.413 0 .72-.093.933-.267l.493-.347c.227-.187.347-.387.347-.613 0-.387-.213-.693-.64-.933a3.316 3.316 0 0 0-1.634-.346h.007l-1.813.133c-.413 0-1.2.093-2.36.28-1.16.2-2.053.293-2.707.293-.267 0-.72-.053-1.36-.16A9.66 9.66 0 0 0 5.077.404h-.01l-1 .32c-.347.107-.507.267-.507.467l.08.4c.187.373.453.667.8.867l.36.187c.173.053.32.08.44.08.147 0 .373 0 .667-.04h.009c.242 0 .468.064.664.177l-.006-.003.493.44c.24.267.4.533.507.773s.16.467.16.667c0 .16-.027.4-.093.76-.053.347-.08.627-.08.827 0 .267.067.653.2 1.147s.2.907.2 1.227c-.04.507-.053 1-.053 1.493v1.493c0 .387.04.88.093 1.493s.093 1.107.093 1.467l-.093 1.827-.04 2.947-.133 2.413c0 .333.053.747.173 1.28s.173.947.173 1.267c0 .333-.04.733-.133 1.24a4.763 4.763 0 0 0-.091 1.785l-.003-.025c.04.227.04.4 0 .533a1.075 1.075 0 0 1-.241.495l.001-.001-.413.507c-.267.32-.573.573-.893.747s-.787.267-1.373.307c-.6.027-1.027.147-1.293.373-.267.213-.4.387-.4.507 0 .76.707 1.133 2.133 1.133l.307-.04 2.56-.267c.427-.027.933-.04 1.493-.04h.533l1.6.04h4.266l1.173-.107c.373-.04.707-.067 1-.067.387 0 .92.093 1.6.293.68.187 1.253.253 1.733.187l.507-.133c.32-.08.613-.133.92-.133l.6.08c.36.04.667.067.907.067.12 0 .32-.04.627-.093.733-.147 1.253-.427 1.547-.84.213-.293.32-.56.32-.827a6.875 6.875 0 0 1-.133-1.819l-.001.019c.133-.293.307-.587.48-.88.147-.387.267-.907.32-1.56.053-.667.107-1.107.147-1.32.053-.213.173-.56.387-1.013.2-.453.307-.84.307-1.16 0-.347-.08-.667-.227-.933-.133-.253-.333-.387-.573-.387-.147 0-.387.133-.707.4-.147.12-.267.333-.387.667a5.74 5.74 0 0 1-.24.653c-.36.533-.707 1.04-1.067 1.533-.145.23-.292.501-.421.782l-.018.045c-.307.627-.533 1.04-.72 1.28-.216.241-.447.46-.695.658l-.011.009c-.147.107-.293.267-.427.453s-.32.493-.547.907l-.76.4-.533.133c-.173.013-.413.093-.707.213-.307.107-.533.187-.667.213a3.43 3.43 0 0 1-.587.04c-.267 0-.667-.04-1.2-.133-.533-.08-.96-.133-1.28-.133l-.933.053c-1.067 0-1.867-.573-2.36-1.72a12.265 12.265 0 0 1-.782-4.35c0-.662.052-1.313.151-1.947l-.009.07c.067-.48.107-.853.107-1.147V17.06l.04-1.013c.04-.413.053-.707.053-.88l.001-.073c0-.48-.083-.941-.236-1.369l.009.028a2.307 2.307 0 0 1-.173-.739v-.007c0-.133.027-.347.08-.613.067-.267.093-.467.093-.613l-.04-1.32c-.04-.56-.053-1-.053-1.32 0-.373.067-.84.187-1.4s.173-1.013.173-1.36z"/></symbol><symbol id="icon-tiktok" viewBox="0 0 32 32"><title>tiktok icon</title><path d="M16.701.027C18.448 0 20.181.014 21.914 0c.107 2.04.84 4.12 2.333 5.56 1.493 1.48 3.6 2.16 5.653 2.387v5.373c-1.92-.067-3.853-.467-5.6-1.293-.76-.347-1.467-.787-2.16-1.24-.013 3.893.013 7.787-.027 11.666-.107 1.867-.72 3.72-1.8 5.253-1.747 2.56-4.773 4.227-7.88 4.28-1.907.107-3.813-.413-5.44-1.373C4.3 29.026 2.406 26.12 2.126 23a24.42 24.42 0 0 1-.013-1.987 10.004 10.004 0 0 1 3.44-6.613c2.213-1.92 5.307-2.84 8.2-2.293.027 1.973-.053 3.947-.053 5.92-1.32-.427-2.867-.307-4.027.493a4.631 4.631 0 0 0-1.813 2.333c-.28.68-.2 1.427-.187 2.147.32 2.187 2.427 4.027 4.667 3.827 1.493-.013 2.92-.88 3.693-2.147.253-.44.533-.893.547-1.413.133-2.387.08-4.76.093-7.147.013-5.373-.013-10.733.027-16.093z"/></symbol><symbol id="icon-slack" viewBox="0 0 28 32"><title>slack icon</title><path d="M5.882 19.694c0 1.619-1.322 2.941-2.941 2.941S0 21.312 0 19.694a2.948 2.948 0 0 1 2.941-2.941h2.941v2.941zm1.483 0c0-1.619 1.323-2.941 2.941-2.941s2.941 1.323 2.941 2.941v7.365c0 1.619-1.322 2.941-2.941 2.941s-2.941-1.323-2.941-2.941v-7.365zm2.941-11.812c-1.619 0-2.941-1.322-2.941-2.941S8.687 2 10.306 2s2.941 1.322 2.941 2.941v2.941h-2.941zm0 1.483c1.619 0 2.941 1.322 2.941 2.941s-1.322 2.941-2.941 2.941H2.941C1.322 15.247 0 13.925 0 12.306s1.323-2.941 2.941-2.941h7.365zm11.812 2.941c0-1.619 1.323-2.941 2.941-2.941S28 10.687 28 12.306s-1.323 2.941-2.941 2.941h-2.941v-2.941zm-1.483 0c0 1.619-1.323 2.941-2.941 2.941s-2.941-1.322-2.941-2.941V4.941C14.753 3.322 16.076 2 17.694 2s2.941 1.322 2.941 2.941v7.365zm-2.941 11.812c1.619 0 2.941 1.323 2.941 2.941S19.312 30 17.694 30a2.948 2.948 0 0 1-2.941-2.941v-2.941h2.941zm0-1.483c-1.619 0-2.941-1.323-2.941-2.941s1.323-2.941 2.941-2.941h7.365c1.619 0 2.941 1.323 2.941 2.941s-1.323 2.941-2.941 2.941h-7.365z"/></symbol><symbol id="icon-medium" viewBox="0 0 32 32"><title>medium icon</title><path d="M0 0v32h32V0zm26.584 7.581-1.716 1.645a.5.5 0 0 0-.191.486v-.003 12.089a.502.502 0 0 0 .189.481l.001.001 1.676 1.645v.361h-8.429v-.36l1.736-1.687c.171-.171.171-.22.171-.48v-9.773l-4.827 12.26h-.653L8.92 11.986v8.217a1.132 1.132 0 0 0 .311.943l2.259 2.739v.361H5.087v-.36l2.26-2.74a1.09 1.09 0 0 0 .289-.949l.001.007v-9.501a.83.83 0 0 0-.27-.702L7.366 10 5.358 7.581v-.36h6.232l4.817 10.564L20.642 7.22h5.941z"/></symbol><symbol id="icon-imdb" viewBox="0 0 32 32"><title>imdb icon</title><path d="M19.08 12.784v.007c-.103-.064-.303-.093-.56-.093v6.42c.36 0 .587-.08.667-.22.083-.139.127-.54.127-1.18v-3.821c0-.44-.005-.72-.044-.84a.384.384 0 0 0-.189-.272zM29.888 0H2.16A2.303 2.303 0 0 0 0 2.128V29.84c.08 1.165.949 2.056 2.073 2.156.02.004.04.004.06.004h27.793a2.302 2.302 0 0 0 2.073-2.28V2.28A2.299 2.299 0 0 0 29.887 0zM6.389 20.835h-2.54v-9.821h2.54zm8.72-.003h-2.216v-6.627L12 20.83h-1.584l-.931-6.48-.009 6.48H7.253v-9.817h3.291a85.5 85.5 0 0 1 .307 2.099l.36 2.493.589-4.592h3.311zm6.636-2.907c0 .873-.059 1.459-.139 1.76-.083.293-.227.533-.435.693-.2.173-.453.291-.76.355-.297.06-.76.1-1.36.1l-.005-.003h-3.073v-9.817h1.901c1.219 0 1.933.063 2.36.171.433.12.767.3.993.56.22.24.364.539.417.86.067.313.101.94.101 1.869zm6.592.634c0 .6-.06 1.019-.12 1.32-.08.299-.26.539-.54.757-.301.221-.64.32-1.04.32-.293 0-.667-.08-.907-.181a2.125 2.125 0 0 1-.687-.569l-.155.627h-2.289v-9.819l-.027-.004h2.4v3.2c.2-.233.42-.413.68-.533.261-.111.621-.169.92-.169.301-.004.6.048.88.153.227.093.427.247.581.44.12.167.2.36.24.56.04.184.059.573.059 1.16zM25.44 14.94c-.16 0-.259.053-.3.16-.04.107-.08.387-.08.832v2.595c0 .432.04.711.08.831a.31.31 0 0 0 .301.179c.16 0 .363-.063.4-.187.04-.129.061-.427.061-.899l.04-.003v-2.52c0-.404-.02-.677-.08-.804-.059-.133-.26-.187-.423-.184z"/></symbol><symbol id="icon-goodreads" viewBox="0 0 32 32"><title>goodreads icon</title><path d="M26.033 21.302V.654h-2.745v3.874h-.085a7.303 7.303 0 0 0-1.123-1.743 8.633 8.633 0 0 0-1.643-1.459 7.707 7.707 0 0 0-2.025-.981A8.026 8.026 0 0 0 16.051 0c-1.613 0-3.067.3-4.328.893-1.263.596-2.324 1.409-3.18 2.44s-1.511 2.235-1.96 3.614a14.103 14.103 0 0 0-.675 4.377c0 1.599.188 3.101.567 4.509.381 1.409.983 2.635 1.824 3.683a8.53 8.53 0 0 0 3.167 2.444c1.281.581 2.825.881 4.628.881 1.664 0 3.107-.42 4.349-1.261s2.184-1.964 2.825-3.366h.081v3.045c0 2.725-.561 4.809-1.685 6.273-1.12 1.441-2.965 2.184-5.528 2.184-.763 0-1.504-.081-2.225-.241a7.15 7.15 0 0 1-1.983-.76c-.583-.361-1.103-.801-1.524-1.384-.421-.58-.701-1.281-.843-2.124H6.752c.089 1.183.42 2.205.983 3.067a7.328 7.328 0 0 0 2.136 2.124c.855.541 1.823.941 2.896 1.203a14.2 14.2 0 0 0 3.325.4c1.844 0 3.388-.26 4.648-.74 1.263-.501 2.285-1.203 3.068-2.144.801-.944 1.361-2.065 1.724-3.408.36-1.343.56-2.845.56-4.489zm-9.978-.743c-1.273 0-2.379-.252-3.305-.761a6.946 6.946 0 0 1-2.309-2.004c-.623-.828-1.063-1.776-1.363-2.852s-.443-2.177-.443-3.312c0-1.161.14-2.3.401-3.417.28-1.12.72-2.116 1.323-2.987.601-.869 1.383-1.576 2.304-2.112s2.044-.807 3.347-.807 2.404.279 3.327.828a7 7 0 0 1 2.244 2.179 9.62 9.62 0 0 1 1.263 3.007c.26 1.101.38 2.208.38 3.309 0 1.136-.16 2.237-.46 3.312a8.527 8.527 0 0 1-1.384 2.852 7.201 7.201 0 0 1-2.264 2.004c-.901.509-1.944.761-3.145.761z"/></symbol><symbol id="icon-discord" viewBox="0 0 32 32"><title>discord icon</title><path d="M26.963 0c1.875 0 3.387 1.516 3.476 3.3V32l-3.569-3.031-1.96-1.784-2.139-1.864.893 2.94H4.947c-1.869 0-3.387-1.42-3.387-3.301V3.307C1.56 1.523 3.08.004 4.953.004h22zm-8.157 7.577h-.04l-.269.267c2.764.8 4.101 2.049 4.101 2.049-1.781-.891-3.387-1.336-4.992-1.516-1.16-.18-2.32-.085-3.3 0h-.267c-.627 0-1.96.267-3.747.98-.623.271-.98.448-.98.448s1.336-1.336 4.28-2.049l-.18-.18s-2.229-.085-4.636 1.693c0 0-2.407 4.192-2.407 9.36 0 0 1.333 2.32 4.991 2.408 0 0 .533-.711 1.073-1.336-2.053-.624-2.853-1.872-2.853-1.872s.179.088.447.267h.08c.04 0 .059.02.08.04v.008c.021.021.04.04.08.04.44.181.88.36 1.24.533.621.269 1.42.537 2.4.715 1.24.18 2.661.267 4.28 0 .8-.18 1.6-.356 2.4-.713.52-.267 1.16-.533 1.863-.983 0 0-.8 1.248-2.94 1.872.44.621 1.06 1.333 1.06 1.333 3.659-.08 5.08-2.4 5.16-2.301 0-5.16-2.42-9.36-2.42-9.36-2.18-1.619-4.22-1.68-4.58-1.68zm.224 5.884c.937 0 1.693.8 1.693 1.78 0 .987-.76 1.787-1.693 1.787s-1.693-.8-1.693-1.779c.003-.987.764-1.784 1.693-1.788zm-6.057 0c.933 0 1.688.8 1.688 1.78 0 .987-.76 1.787-1.693 1.787s-1.693-.8-1.693-1.779c0-.987.76-1.784 1.699-1.788z"/></symbol><symbol id="icon-yelp" viewBox="0 0 32 32"><title>yelp icon</title><path d="M19.027 20.421c-.54.545-.083 1.535-.083 1.535l4.065 6.788s.668.895 1.246.895c.581 0 1.155-.477 1.155-.477l3.214-4.594s.324-.58.331-1.087c.012-.722-1.077-.92-1.077-.92l-7.609-2.444s-.746-.198-1.242.303zM18.642 17c.389.66 1.463.468 1.463.468l7.592-2.219s1.035-.421 1.182-.982c.145-.561-.171-1.238-.171-1.238L25.08 8.755s-.314-.54-.967-.595c-.719-.061-1.162.809-1.162.809l-4.29 6.75s-.379.672-.02 1.28zm-3.587-2.632c.894-.22 1.036-1.519 1.036-1.519L16.03 2.041S15.895.708 15.296.346c-.94-.57-1.218-.272-1.487-.233L7.506 2.455s-.617.204-.939.719c-.459.73.466 1.798.466 1.798l6.551 8.93s.647.669 1.47.465zm-1.557 4.374c.023-.834-1.001-1.334-1.001-1.334l-6.775-3.423s-1.004-.414-1.491-.126c-.373.221-.704.62-.737.973l-.441 5.432s-.066.941.178 1.369c.345.608 1.482.184 1.482.184l7.909-1.748c.307-.207.846-.225.876-1.328zm1.967 2.931c-.679-.349-1.491.373-1.491.373l-5.296 5.83s-.661.892-.493 1.439c.158.513.42.768.791.948l5.319 1.679s.645.134 1.133-.008c.693-.201.565-1.286.565-1.286l.12-7.894s-.027-.76-.648-1.082z"/></symbol><symbol id="icon-wikipedia" viewBox="0 0 32 32"><title>wikipedia icon</title><path d="M32 6.204a.532.532 0 0 1-.106.317c-.07.091-.148.141-.239.141-.704.07-1.281.296-1.724.676-.45.38-.908 1.119-1.379 2.196l-7.263 16.377c-.049.155-.183.225-.401.225a.46.46 0 0 1-.401-.225l-4.075-8.515-4.687 8.515a.44.44 0 0 1-.401.225c-.211 0-.345-.077-.415-.225L3.78 9.542c-.443-1.013-.915-1.724-1.408-2.125S1.19 6.763.31 6.671c-.077 0-.148-.042-.211-.12A.39.39 0 0 1 0 6.277c0-.267.077-.401.225-.401.633 0 1.302.028 1.999.084.647.056 1.253.084 1.823.084.577 0 1.267-.028 2.055-.084a32.732 32.732 0 0 1 2.196-.084c.155 0 .225.134.225.401s-.049.394-.141.394c-.633.049-1.14.211-1.506.486s-.549.633-.549 1.084c0 .225.077.514.225.852l5.89 13.315 3.35-6.32-3.118-6.538c-.563-1.168-1.02-1.921-1.379-2.259s-.908-.542-1.64-.619c-.07 0-.127-.042-.19-.12s-.091-.169-.091-.274c0-.267.063-.401.197-.401.633 0 1.217.028 1.752.084.514.056 1.056.084 1.64.084.57 0 1.168-.028 1.809-.084a22.746 22.746 0 0 1 1.935-.084c.155 0 .225.134.225.401s-.042.394-.141.394c-1.274.084-1.907.45-1.907 1.084 0 .281.148.725.443 1.323l2.062 4.187 2.055-3.828c.282-.542.429-.999.429-1.365 0-.873-.633-1.337-1.907-1.393-.113 0-.169-.134-.169-.394 0-.099.028-.183.084-.267s.113-.127.169-.127c.457 0 1.013.028 1.682.084.633.056 1.161.084 1.569.084.296 0 .725-.028 1.295-.07a21.586 21.586 0 0 1 1.809-.099c.113 0 .169.113.169.338 0 .303-.106.457-.31.457-.739.077-1.337.282-1.788.612s-1.013 1.084-1.689 2.266l-2.752 5.039 3.702 7.544L27.205 9.43c.19-.464.282-.894.282-1.281 0-.929-.633-1.422-1.907-1.485-.113 0-.169-.134-.169-.394 0-.267.084-.401.253-.401.464 0 1.013.028 1.654.084.591.056 1.084.084 1.478.084.422 0 .901-.028 1.45-.084.57-.056 1.084-.084 1.541-.084.141 0 .211.113.211.338z"/></symbol><symbol id="icon-vimeo" viewBox="0 0 32 32"><title>vimeo icon</title><path d="M31.985 8.558c-.144 3.113-2.319 7.382-6.526 12.795-4.351 5.651-8.032 8.482-11.045 8.482-1.863 0-3.444-1.719-4.732-5.163-.863-3.157-1.719-6.313-2.582-9.47-.956-3.444-1.981-5.163-3.082-5.163-.238 0-1.075.506-2.513 1.506L-.001 9.607a391.983 391.983 0 0 0 4.669-4.163c2.107-1.819 3.688-2.775 4.744-2.875 2.488-.238 4.025 1.463 4.601 5.107.619 3.932 1.05 6.376 1.294 7.332.719 3.263 1.506 4.894 2.369 4.894.669 0 1.675-1.056 3.019-3.175 1.338-2.113 2.056-3.725 2.157-4.832.194-1.825-.525-2.744-2.157-2.744-.769 0-1.556.175-2.369.525 1.575-5.151 4.576-7.651 9.014-7.507 3.282.087 4.832 2.219 4.644 6.388z"/></symbol><symbol id="icon-twitch" viewBox="0 0 32 32"><title>twitch icon</title><path d="M4 0 1 5v23h8v4h4l4-4h5l9-9V0H4zm23 17-5 5h-5l-4 4v-4H7V4h20v13z"/><path d="M20 8h3v8h-3V8zM14 8h3v8h-3V8z"/></symbol><symbol id="icon-tumblr" viewBox="0 0 32 32"><title>tumblr icon</title><path d="M17.998 14v7.318c0 1.857-.024 2.927.173 3.453.195.524.685 1.067 1.218 1.381.709.425 1.517.637 2.428.637 1.62 0 2.577-.214 4.179-1.267v4.811a18.187 18.187 0 0 1-3.666 1.279 15.852 15.852 0 0 1-3.596.388c-1.463 0-2.327-.184-3.45-.552-1.124-.371-2.083-.9-2.876-1.579-.795-.685-1.344-1.413-1.652-2.182s-.46-1.888-.46-3.351V13.114H6.001V8.583c1.256-.408 2.661-.993 3.556-1.755a8.757 8.757 0 0 0 2.16-2.748c.543-1.067.917-2.429 1.121-4.079h5.159v8h7.999v6h-7.999z"/></symbol><symbol id="icon-steam" viewBox="0 0 32 32"><title>steam icon</title><path d="M22 8.843a3 3 0 1 1 6 0 3 3 0 0 1-6 0zm7.95-4.95a7 7 0 0 0-11.879 3.95l-6.397 9.695a6.3 6.3 0 0 0-2.499.657l-4.934-3.857a2.625 2.625 0 1 0-3.233 4.136l4.873 3.809a6.313 6.313 0 1 0 12.335.457l7.783-6.968a6.999 6.999 0 0 0 3.95-11.878zM12 28.052a4.208 4.208 0 0 1-4.209-4.209l.002-.066 2.091 1.634c.48.375 1.049.557 1.615.557a2.625 2.625 0 0 0 1.619-4.694l-1.984-1.551a4.208 4.208 0 1 1 .868 8.328zm13-14.209a5 5 0 1 1 .001-10.001A5 5 0 0 1 25 13.843z"/></symbol><symbol id="icon-spotify" viewBox="0 0 32 32"><title>spotify icon</title><path d="M16 0C7.2 0 0 7.2 0 16s7.2 16 16 16 16-7.2 16-16S24.881 0 16 0zm7.363 23.119c-.319.481-.881.637-1.363.319-3.762-2.319-8.481-2.8-14.081-1.519-.563.163-1.037-.238-1.2-.719-.162-.563.237-1.038.719-1.2 6.081-1.363 11.363-.8 15.519 1.762.563.238.644.875.406 1.356zm1.918-4.4c-.4.563-1.119.8-1.681.4-4.319-2.637-10.881-3.438-15.919-1.837-.638.163-1.362-.163-1.519-.8-.162-.637.162-1.363.8-1.519 5.838-1.762 13.037-.881 18 2.163.475.238.719 1.038.319 1.594zm.157-4.481c-5.119-3.037-13.681-3.363-18.563-1.838-.8.238-1.6-.238-1.838-.963-.237-.8.237-1.6.963-1.838 5.681-1.681 15.038-1.363 20.962 2.162.719.4.962 1.363.563 2.081-.406.556-1.363.794-2.087.394z"/></symbol><symbol id="icon-skype" viewBox="0 0 32 32"><title>skype icon</title><path d="M13.294 1.175c-.05-.031-.106-.056-.156-.081-.056.012-.106.019-.162.031l.319.05zM1.144 13.162a1.84 1.84 0 0 0-.025.162c.031.05.05.1.081.15l-.056-.313zM30.831 18.837c.012-.056.019-.113.031-.169-.031-.05-.05-.1-.081-.15l.05.319zM18.494 30.725c.05.031.106.056.156.081a1.64 1.64 0 0 1 .169-.025l-.325-.056z"/><path d="M30.863 18.669c-.012.056-.019.113-.031.169l-.056-.325c.031.056.056.106.087.156.163-.9.25-1.819.25-2.738a15.067 15.067 0 0 0-4.426-10.687 15.133 15.133 0 0 0-4.8-3.237A15.023 15.023 0 0 0 16.006.819c-.963 0-1.925.088-2.863.269h-.006c.05.025.106.05.156.081l-.319-.05c.056-.012.106-.019.162-.031A8.99 8.99 0 0 0 8.942.038c-2.388 0-4.638.931-6.325 2.619S-.002 6.594-.002 8.982c0 1.519.394 3.019 1.125 4.338a1.84 1.84 0 0 0 .025-.162l.056.319c-.031-.05-.056-.1-.081-.15-.15.856-.225 1.731-.225 2.606a15.072 15.072 0 0 0 4.425 10.681 15.1 15.1 0 0 0 4.806 3.238 15.023 15.023 0 0 0 8.525.95c-.05-.031-.1-.056-.156-.081l.325.056a1.64 1.64 0 0 1-.169.025 8.956 8.956 0 0 0 4.4 1.163c2.387 0 4.637-.931 6.325-2.619s2.619-3.938 2.619-6.325a9.07 9.07 0 0 0-1.137-4.35zm-14.8 6.519c-5.369 0-7.769-2.637-7.769-4.619 0-1.012.75-1.725 1.781-1.725 2.3 0 1.7 3.3 5.988 3.3 2.194 0 3.406-1.194 3.406-2.413 0-.731-.363-1.544-1.806-1.9l-4.775-1.194c-3.844-.963-4.544-3.044-4.544-5 0-4.056 3.819-5.581 7.406-5.581 3.306 0 7.2 1.825 7.2 4.263 0 1.044-.906 1.65-1.938 1.65-1.962 0-1.6-2.713-5.55-2.713-1.963 0-3.044.887-3.044 2.156s1.55 1.675 2.894 1.981l3.538.787c3.869.863 4.85 3.125 4.85 5.25 0 3.294-2.531 5.756-7.637 5.756z"/></symbol><symbol id="icon-soundcloud" viewBox="0 0 32 32"><title>soundcloud icon</title><path d="M27.874 15.069c-.565 0-1.105.11-1.596.308C25.95 11.803 22.831 9 19.028 9a7.61 7.61 0 0 0-2.635.474c-.311.116-.393.235-.393.466v12.585c0 .243.195.445.441.469l11.434.007c2.278 0 4.125-1.776 4.125-3.965s-1.848-3.966-4.126-3.966zM12.5 23h1l.5-7.007L13.5 9h-1l-.5 6.993zm-3 0h-1L8 17.914 8.5 13h1l.5 5zm-5 0h1l.5-4-.5-4h-1L4 19zm-4-2h1l.5-2-.5-2h-1L0 19z"/></symbol><symbol id="icon-paypal" viewBox="0 0 32 32"><title>paypal icon</title><path d="M28.624 9.644c-1.494 6.631-6.106 10.131-13.375 10.131H12.83L11.149 30.45H9.124l-.106.688a.748.748 0 0 0 .738.863h5.175c.613 0 1.131-.444 1.231-1.05l.05-.262.975-6.181.063-.337a1.244 1.244 0 0 1 1.231-1.05h.769c5.012 0 8.938-2.038 10.087-7.925.431-2.238.269-4.137-.712-5.55z"/><path d="M25.53 2.413C24.049.725 21.368 0 17.942 0H7.998c-.7 0-1.3.506-1.406 1.2L2.448 27.462a.855.855 0 0 0 .844.988h6.144l1.544-9.781-.05.306c.106-.694.7-1.2 1.4-1.2h2.919c5.731 0 10.219-2.325 11.531-9.063.038-.2.075-.394.1-.581.387-2.487 0-4.188-1.35-5.719z"/></symbol><symbol id="icon-github" viewBox="0 0 32 32"><title>github icon</title><path d="M16 .395c-8.836 0-16 7.163-16 16 0 7.069 4.585 13.067 10.942 15.182.8.148 1.094-.347 1.094-.77 0-.381-.015-1.642-.022-2.979-4.452.968-5.391-1.888-5.391-1.888-.728-1.849-1.776-2.341-1.776-2.341-1.452-.993.11-.973.11-.973 1.606.113 2.452 1.649 2.452 1.649 1.427 2.446 3.743 1.739 4.656 1.33.143-1.034.558-1.74 1.016-2.14-3.554-.404-7.29-1.777-7.29-7.907 0-1.747.625-3.174 1.649-4.295-.166-.403-.714-2.03.155-4.234 0 0 1.344-.43 4.401 1.64a15.353 15.353 0 0 1 4.005-.539c1.359.006 2.729.184 4.008.539 3.054-2.07 4.395-1.64 4.395-1.64.871 2.204.323 3.831.157 4.234 1.026 1.12 1.647 2.548 1.647 4.295 0 6.145-3.743 7.498-7.306 7.895.574.497 1.085 1.47 1.085 2.963 0 2.141-.019 3.864-.019 4.391 0 .426.288.925 1.099.768C27.421 29.457 32 23.462 32 16.395c0-8.837-7.164-16-16-16z"/></symbol><symbol id="icon-behance" viewBox="0 0 32 32"><title>behance icon</title><path d="M9.278 5.978c.943 0 1.793.081 2.568.25.775.162 1.431.437 1.987.812.55.375.975.875 1.287 1.5.3.619.45 1.393.45 2.312 0 .993-.225 1.818-.675 2.48-.456.662-1.118 1.2-2.006 1.624 1.212.35 2.106.962 2.705 1.831.6.875.887 1.924.887 3.162 0 1-.194 1.856-.575 2.58a5.048 5.048 0 0 1-1.556 1.781c-.65.462-1.4.8-2.237 1.018-.831.219-1.687.331-2.574.331H-.002V5.978h9.278zm-.562 7.948c.768 0 1.406-.181 1.906-.55.5-.362.737-.962.737-1.787 0-.456-.081-.837-.244-1.131a1.803 1.803 0 0 0-.669-.687 2.636 2.636 0 0 0-.956-.344 5.868 5.868 0 0 0-1.112-.1H4.329v4.599h4.386zm.237 8.378a5.45 5.45 0 0 0 1.212-.125c.387-.087.731-.219 1.018-.419.287-.194.531-.45.706-.787.175-.331.256-.756.256-1.275 0-1.012-.287-1.737-.856-2.174-.569-.431-1.325-.644-2.262-.644H4.328v5.417h4.624zM22.655 22.236c.587.575 1.431.862 2.53.862.787 0 1.475-.2 2.043-.6s.912-.825 1.043-1.262h3.449c-.556 1.718-1.393 2.937-2.543 3.674-1.131.737-2.518 1.112-4.124 1.112-1.125 0-2.131-.181-3.037-.537a6.437 6.437 0 0 1-2.299-1.531 7.014 7.014 0 0 1-1.45-2.374c-.337-.918-.512-1.937-.512-3.037 0-1.068.175-2.062.525-2.98.356-.925.843-1.718 1.493-2.387s1.412-1.2 2.312-1.587c.893-.387 1.881-.581 2.974-.581 1.206 0 2.262.231 3.168.706.9.469 1.643 1.1 2.224 1.887s.993 1.693 1.25 2.705c.256 1.012.344 2.068.275 3.174H21.685c0 1.118.375 2.187.968 2.755zm4.493-7.486c-.462-.512-1.256-.793-2.212-.793-.625 0-1.143.106-1.556.319a3.148 3.148 0 0 0-.993.787c-.25.312-.425.65-.525 1.006-.1.344-.162.662-.181.937h6.373c-.094-1-.437-1.737-.906-2.256zM20.881 7.565h7.979v1.943h-7.979V7.565z"/></symbol><symbol id="icon-apple" viewBox="0 0 32 32"><title>apple icon</title><path d="M24.734 17.003c-.04-4.053 3.305-5.996 3.454-6.093-1.88-2.751-4.808-3.127-5.851-3.171-2.492-.252-4.862 1.467-6.127 1.467-1.261 0-3.213-1.43-5.28-1.392-2.716.04-5.221 1.579-6.619 4.012-2.822 4.897-.723 12.151 2.028 16.123 1.344 1.944 2.947 4.127 5.051 4.049 2.026-.081 2.793-1.311 5.242-1.311s3.138 1.311 5.283 1.271c2.18-.041 3.562-1.981 4.897-3.931 1.543-2.255 2.179-4.439 2.216-4.551-.048-.022-4.252-1.632-4.294-6.473zM20.705 5.11C21.822 3.755 22.576 1.875 22.37 0c-1.609.066-3.559 1.072-4.713 2.423-1.036 1.199-1.942 3.113-1.699 4.951 1.796.14 3.629-.913 4.747-2.264z"/></symbol><symbol id="icon-amazon" viewBox="0 0 32 32"><title>amazon icon</title><path d="M28.926 26.851c-3.507 2.588-8.582 3.963-12.958 3.963-6.132 0-11.652-2.263-15.827-6.038-.325-.294-.038-.7.356-.469 4.507 2.625 10.083 4.201 15.84 4.201 3.882 0 8.151-.806 12.083-2.475.588-.25 1.088.394.506.819z"/><path d="M30.382 25.189c-.45-.575-2.963-.275-4.094-.138-.344.038-.394-.256-.087-.475 2.007-1.406 5.294-1 5.676-.531.388.475-.1 3.769-1.982 5.344-.288.244-.563.113-.438-.206.431-1.056 1.375-3.419.925-3.994zM22.106 22.863l.006.006a191.1 191.1 0 0 1 2.957-2.557c.313-.25.256-.669.012-1.019-.706-.975-1.456-1.769-1.456-3.569V9.723c0-2.544.175-4.876-1.694-6.626-1.475-1.413-3.926-1.913-5.801-1.913-3.663 0-7.751 1.369-8.607 5.895-.094.481.263.738.575.806l3.732.406c.35-.019.6-.363.669-.713.319-1.556 1.625-2.313 3.094-2.313.794 0 1.694.288 2.163 1 .538.794.469 1.875.469 2.794v.5c-2.232.25-5.151.413-7.239 1.331-2.413 1.044-4.107 3.169-4.107 6.295 0 4.001 2.519 6.001 5.763 6.001 2.738 0 4.232-.644 6.345-2.807.7 1.013.925 1.506 2.207 2.569.294.156.656.144.913-.087zm-3.881-9.388c0 1.5.038 2.75-.719 4.082-.613 1.088-1.581 1.75-2.663 1.75-1.475 0-2.338-1.125-2.338-2.788 0-3.282 2.944-3.876 5.726-3.876v.831z"/></symbol><symbol id="icon-wordpress" viewBox="0 0 32 32"><title>wordpress icon</title><path d="M2.268 16c0-1.982.429-3.875 1.196-5.589l6.554 17.946C5.429 26.125 2.268 21.428 2.268 16zm23-.696c0 1.179-.482 2.536-1.054 4.446l-1.357 4.571-4.964-14.75s.821-.054 1.571-.143c.732-.089.643-1.179-.089-1.125-2.232.161-3.661.179-3.661.179s-1.339-.018-3.607-.179c-.75-.054-.839 1.071-.089 1.125.696.071 1.429.143 1.429.143l2.143 5.857-3 9-5-14.857s.821-.054 1.571-.143c.732-.089.643-1.179-.089-1.125a67.488 67.488 0 0 1-3.661.179c-.25 0-.554-.018-.875-.018A13.676 13.676 0 0 1 16 2.268c3.571 0 6.821 1.375 9.268 3.607h-.179c-1.339 0-2.304 1.161-2.304 2.429 0 1.125.661 2.071 1.357 3.214.536.911 1.125 2.089 1.125 3.786zm-9.036 1.892 4.232 11.554a.677.677 0 0 0 .089.196c-1.429.5-2.946.786-4.554.786a13.3 13.3 0 0 1-3.875-.571zm11.804-7.785A13.698 13.698 0 0 1 29.732 16c0 5.071-2.75 9.482-6.839 11.857l4.196-12.107c.696-2 1.054-3.536 1.054-4.929 0-.5-.036-.964-.107-1.411zM16 0c8.821 0 16 7.179 16 16s-7.179 16-16 16S0 24.821 0 16 7.179 0 16 0zm0 31.268c8.411 0 15.268-6.857 15.268-15.268S24.411.732 16 .732.732 7.589.732 16 7.589 31.268 16 31.268z"/></symbol><symbol id="icon-bandcamp" viewBox="0 0 32 32"><title>bandcamp icon</title><path d="m19.107 21.036 5.464-10.071H12.892L7.428 21.036h11.679zM32 16c0 8.839-7.161 16-16 16S0 24.839 0 16 7.161 0 16 0s16 7.161 16 16z"/></symbol><symbol id="icon-etsy" viewBox="0 0 27 32"><title>etsy icon</title><path d="M9.254 3.268v11.696c4.143.036 6.321-.179 6.321-.179 1.679-.054 1.929-.482 2.321-2.125l.589-2.536h1.839l-.25 5.75.125 5.696H18.36l-.518-2.268c-.375-1.696-1.107-2.107-2.304-2.125 0 0-1.536-.143-6.286-.143v9.929c0 1.857 1.018 2.732 3.161 2.732h6.375c2.143 0 4.071-.214 5.393-3.268l1.661-3.857h1.589c-.125.768-.982 7.857-1.107 9.429-5.875-.214-8.393-.214-8.393-.214H6.717l-6.714.214v-1.821l2.268-.446c1.589-.304 2.071-.768 2.089-2.071.107-4.321.143-11.482.143-11.482S4.557 9 4.36 4.661c-.054-1.482-.5-1.839-2.089-2.143L.003 2.089V.268l6.714.214h12.536s2.482 0 6.679-.482c-.25 2.732-.554 9.036-.554 9.036h-1.661l-.571-2.214c-.696-2.768-1.625-4.25-3.339-4.25h-9.786c-.732 0-.768.25-.768.696z"/></symbol></defs></svg>